<svg width="63" height="60" viewBox="0 0 63 60" fill="none" xmlns="http://www.w3.org/2000/svg">
<path d="M28.1735 1.73992C30.0955 -0.498594 33.6714 -0.498594 35.5934 1.73992L39.59 6.39478C40.6068 7.57899 42.1718 8.20035 43.7644 8.05211L50.0245 7.46938C53.0349 7.18914 55.5635 9.61277 55.2711 12.4983L54.6632 18.4985C54.5085 20.025 55.1568 21.5251 56.3922 22.4996L61.2487 26.3304C63.5841 28.1726 63.5841 31.6001 61.2487 33.4423L56.3922 37.2731C55.1568 38.2476 54.5085 39.7478 54.6632 41.2742L55.2711 47.2745C55.5635 50.16 53.0349 52.5836 50.0245 52.3034L43.7644 51.7206C42.1718 51.5724 40.6068 52.1938 39.59 53.378L35.5934 58.0328C33.6714 60.2713 30.0955 60.2713 28.1735 58.0328L24.1768 53.378C23.1601 52.1938 21.595 51.5724 20.0025 51.7206L13.7424 52.3034C10.7319 52.5836 8.20337 50.16 8.49574 47.2745L9.1037 41.2742C9.25837 39.7478 8.61009 38.2476 7.37461 37.2731L2.51819 33.4423C0.182739 31.6001 0.182739 28.1726 2.51819 26.3304L7.37461 22.4996C8.61009 21.5251 9.25837 20.025 9.1037 18.4985L8.49574 12.4983C8.20337 9.61277 10.7319 7.18914 13.7424 7.46938L20.0025 8.05211C21.595 8.20035 23.1601 7.57899 24.1768 6.39478L28.1735 1.73992Z" fill="url(#paint0_linear)"/>
<defs>
<linearGradient id="paint0_linear" x1="0.766602" y1="0.0610352" x2="74.6689" y2="35.1031" gradientUnits="userSpaceOnUse">
<stop stop-color="#FF14BD"/>
<stop offset="1" stop-color="#E20411"/>
</linearGradient>
</defs>
</svg>
